# xmcd
#
# Track frame offsets: 
#        150
#        22457
#        32507
#        49448
#        72521
#        91926
#        103432
#        126960
#        143395
#        165187
#        191712
#        215979
#        239035
#
# Disc length: 3817 seconds
#
# Revision: 0
# Processed by: cddbd v1.5.2PL0 Copyright (c) Steve Scherf et al.
# Submitted via: ExactAudioCopy v0.95b3
#
DISCID=ca0ee70d
DTITLE=The Fireman  - Electric Arguments  FLAC
DYEAR=1900
DGENRE=
TTITLE0=Nothing Too Much Just Out Of Sight
TTITLE1=Two Magpies
TTITLE2=Sing The Changes
TTITLE3=Travelling Light
TTITLE4=Highway
TTITLE5=Light From Your Lighthouse
TTITLE6=Sun Is Shining
TTITLE7=Dance 'Til We're High
TTITLE8=Lifelong Passion
TTITLE9=Is This Love?
TTITLE10=Lovers In A Dream
TTITLE11=Universal Here, Everlasting Now
TTITLE12=Don't Stop Running
EXTD=
EXTT0=
EXTT1=
EXTT2=
EXTT3=
EXTT4=
EXTT5=
EXTT6=
EXTT7=
EXTT8=
EXTT9=
EXTT10=
EXTT11=
EXTT12=
PLAYORDER=
